# xmcd
#
# Track frame offsets:
#	150
#	16797
#	31896
#	57236
#	78938
#	95526
#	112306
#	133692
#	154930
#	177853
#	199506
#	223355
#	240371
#	262649
#
# Disc length: 3784 seconds
#
# Revision: 1
# Processed by: cddbd v1.5.2PL0 Copyright (c) Steve Scherf et al.
# Submitted via: audiograbber 1.83.01
#
DISCID=b40ec60e
DTITLE=Elton John and Leon Russell - The Union
DYEAR=2010
DGENRE=Blues
TTITLE0=If It Wasn't For Bad
TTITLE1=Eight Hundred Dollar Shoes
TTITLE2=Hey Ahab
TTITLE3=Gone To Shiloh
TTITLE4=Jimmie Rodgers' Dream
TTITLE5=There's No Tomorrow
TTITLE6=Monkey Suit
TTITLE7=The Best Part Of The Day
TTITLE8=A Dream Come True
TTITLE9=When Love Is Dying
TTITLE10=I Should Have Sent Roses
TTITLE11=Hearts Have Turned To Stone
TTITLE12=Never Too Old (To Hold Somebody)
TTITLE13=in the hands of angels
EXTD=
EXTT0=
EXTT1=
EXTT2=
EXTT3=
EXTT4=
EXTT5=
EXTT6=
EXTT7=
EXTT8=
EXTT9=
EXTT10=
EXTT11=
EXTT12=
EXTT13=
PLAYORDER=
